<?xml version="1.0" encoding="UTF-8" standalone="no"?>
<!-- Created with Inkscape (http://www.inkscape.org/) -->

<svg
   width="320"
   height="320"
   viewBox="0 0 320 320"
   version="1.1"
   id="svg5"
   inkscape:version="1.1.2 (b8e25be833, 2022-02-05)"
   sodipodi:docname="vuMeter.svg"
   inkscape:export-filename="C:\Users\adler\Documents\StreamTools\HeartRateReceiver\vuMeter_heart.png"
   inkscape:export-xdpi="96"
   inkscape:export-ydpi="96"
   xmlns:inkscape="http://www.inkscape.org/namespaces/inkscape"
   xmlns:sodipodi="http://sodipodi.sourceforge.net/DTD/sodipodi-0.dtd"
   xmlns:xlink="http://www.w3.org/1999/xlink"
   xmlns="http://www.w3.org/2000/svg"
   xmlns:svg="http://www.w3.org/2000/svg">
  <sodipodi:namedview
     id="namedview7"
     pagecolor="#505050"
     bordercolor="#ffffff"
     borderopacity="1"
     inkscape:pageshadow="0"
     inkscape:pageopacity="0"
     inkscape:pagecheckerboard="1"
     inkscape:document-units="px"
     showgrid="false"
     inkscape:zoom="1.986108"
     inkscape:cx="171.69258"
     inkscape:cy="105.23093"
     inkscape:window-width="1920"
     inkscape:window-height="1017"
     inkscape:window-x="-8"
     inkscape:window-y="-8"
     inkscape:window-maximized="1"
     inkscape:current-layer="layer4"
     units="px"
     showguides="true"
     inkscape:guide-bbox="true">
    <sodipodi:guide
       position="-5,160"
       orientation="0,1"
       id="guide2964"
       inkscape:label=""
       inkscape:locked="false"
       inkscape:color="rgb(0,0,255)" />
    <sodipodi:guide
       position="160,-69"
       orientation="-1,0"
       id="guide2966"
       inkscape:label=""
       inkscape:locked="false"
       inkscape:color="rgb(0,0,255)" />
  </sodipodi:namedview>
  <defs
     id="defs2">
    <linearGradient
       inkscape:collect="always"
       id="linearGradient4740">
      <stop
         style="stop-color:#ffffff;stop-opacity:0.25"
         offset="0"
         id="stop4736" />
      <stop
         style="stop-color:#000000;stop-opacity:1"
         offset="1"
         id="stop4738" />
    </linearGradient>
    <radialGradient
       inkscape:collect="always"
       xlink:href="#linearGradient4740"
       id="radialGradient5384"
       cx="51.585911"
       cy="-79.068665"
       fx="51.585911"
       fy="-79.068665"
       r="155.00201"
       gradientTransform="matrix(-0.8662556,-0.50013293,0.50228109,-0.86997639,25.837215,-261.55212)"
       gradientUnits="userSpaceOnUse" />
  </defs>
  <g
     inkscape:label="PlannedBkg"
     inkscape:groupmode="layer"
     id="layer1"
     style="display:none;opacity:1">
    <circle
       style="fill:#ff0000;fill-rule:evenodd;stroke-width:0.775"
       id="path352"
       cx="160"
       cy="160"
       r="155" />
    <circle
       style="opacity:0.416526;fill:#ffffff;fill-rule:evenodd;stroke-width:0.625"
       id="path352-5"
       cx="160"
       cy="160"
       r="125" />
  </g>
  <g
     inkscape:groupmode="layer"
     id="layer3"
     inkscape:label="ColorZones"
     style="display:inline">
    <path
       style="opacity:1;fill:#4400aa;stroke:#ffffff;stroke-width:0;stroke-linecap:round;stroke-linejoin:round;stroke-miterlimit:4;stroke-dasharray:none;paint-order:stroke fill markers"
       id="path2992"
       sodipodi:type="arc"
       sodipodi:cx="-58.568031"
       sodipodi:cy="-218.55717"
       sodipodi:rx="154.99205"
       sodipodi:ry="154.99205"
       sodipodi:start="0"
       sodipodi:end="0.26179939"
       sodipodi:arc-type="slice"
       d="m 96.424019,-218.55717 a 154.99205,154.99205 0 0 1 -5.281226,40.11489 l -149.710824,-40.11489 z"
       transform="rotate(150)" />
    <path
       style="opacity:1;fill:#d45500;stroke:#ffffff;stroke-width:0;stroke-linecap:round;stroke-linejoin:round;stroke-miterlimit:4;stroke-dasharray:none;paint-order:stroke fill markers"
       id="path3415"
       sodipodi:type="arc"
       sodipodi:cx="-58.568031"
       sodipodi:cy="-218.55717"
       sodipodi:rx="154.99205"
       sodipodi:ry="154.99205"
       sodipodi:start="2.6179939"
       sodipodi:end="3.403392"
       sodipodi:arc-type="slice"
       d="m -192.79509,-141.06115 a 154.99205,154.99205 0 0 1 -15.48377,-117.61091 l 149.710829,40.11489 z"
       transform="rotate(150)" />
    <path
       style="opacity:1;fill:#d4aa00;stroke:#ffffff;stroke-width:0;stroke-linecap:round;stroke-linejoin:round;stroke-miterlimit:4;stroke-dasharray:none;paint-order:stroke fill markers"
       id="path3436"
       sodipodi:type="arc"
       sodipodi:cx="-58.568031"
       sodipodi:cy="-218.55717"
       sodipodi:rx="154.99205"
       sodipodi:ry="154.99205"
       sodipodi:start="1.8325957"
       sodipodi:end="2.6179939"
       sodipodi:arc-type="slice"
       d="m -98.682924,-68.84635 a 154.99205,154.99205 0 0 1 -94.112166,-72.2148 l 134.227059,-77.49602 z"
       transform="rotate(150)" />
    <path
       style="opacity:1;fill:#00aa44;stroke:#ffffff;stroke-width:0;stroke-linecap:round;stroke-linejoin:round;stroke-miterlimit:4;stroke-dasharray:none;paint-order:stroke fill markers"
       id="path3476"
       sodipodi:type="arc"
       sodipodi:cx="-58.568031"
       sodipodi:cy="-218.55717"
       sodipodi:rx="154.99205"
       sodipodi:ry="154.99205"
       sodipodi:start="1.0471976"
       sodipodi:end="1.8325957"
       sodipodi:arc-type="slice"
       d="M 18.927987,-84.330118 A 154.99205,154.99205 0 0 1 -98.682924,-68.84635 l 40.114893,-149.71082 z"
       transform="rotate(150)" />
    <path
       style="opacity:1;fill:#0055d4;stroke:#ffffff;stroke-width:0;stroke-linecap:round;stroke-linejoin:round;stroke-miterlimit:4;stroke-dasharray:none;paint-order:stroke fill markers"
       id="path3535"
       sodipodi:type="arc"
       sodipodi:cx="-58.568031"
       sodipodi:cy="-218.55717"
       sodipodi:rx="154.99205"
       sodipodi:ry="154.99205"
       sodipodi:start="0.26179939"
       sodipodi:end="1.0471976"
       sodipodi:arc-type="slice"
       d="M 91.142793,-178.44228 A 154.99205,154.99205 0 0 1 18.927987,-84.330118 L -58.568031,-218.55717 Z"
       transform="rotate(150)" />
    <path
       style="opacity:1;fill:#d40000;stroke:#ffffff;stroke-width:0;stroke-linecap:round;stroke-linejoin:round;stroke-miterlimit:4;stroke-dasharray:none;paint-order:stroke fill markers"
       id="path3375"
       sodipodi:type="arc"
       sodipodi:cx="-58.568031"
       sodipodi:cy="-218.55717"
       sodipodi:rx="154.99205"
       sodipodi:ry="154.99205"
       sodipodi:start="3.403392"
       sodipodi:end="4.1887902"
       sodipodi:arc-type="slice"
       d="m -208.27886,-258.67206 a 154.99205,154.99205 0 0 1 72.2148,-94.11217 l 77.496029,134.22706 z"
       transform="rotate(150)" />
    <path
       style="opacity:1;fill:url(#radialGradient5384);fill-opacity:1;stroke:#ffffff;stroke-width:0;stroke-linecap:round;stroke-linejoin:round;stroke-miterlimit:4;stroke-dasharray:none;stroke-opacity:0.28;paint-order:stroke fill markers"
       id="path4539"
       sodipodi:type="arc"
       sodipodi:cx="-58.568031"
       sodipodi:cy="-218.55717"
       sodipodi:rx="154.99205"
       sodipodi:ry="154.99205"
       sodipodi:start="0"
       sodipodi:end="4.1887902"
       sodipodi:arc-type="slice"
       d="m 96.424019,-218.55717 a 154.99205,154.99205 0 0 1 -128.077963,152.637368 154.99205,154.99205 0 0 1 -172.558976,-99.626968 154.99205,154.99205 0 0 1 68.14886,-187.23746 l 77.496029,134.22706 z"
       transform="rotate(150)" />
  </g>
  <g
     inkscape:groupmode="layer"
     id="layer5"
     inkscape:label="ColorEmphasis 0"
     style="display:none">
    <path
       id="path352-8"
       style="display:inline;fill:#4400aa;fill-opacity:1;fill-rule:evenodd;stroke-width:0.775"
       d="m 39.587891,192.25391 -29.095703,7.79687 a 155,155 0 0 0 0.509765,2.3418 154.99205,154.99205 0 0 0 1.085938,3.4414 155,155 0 0 0 6.414062,17.19922 154.99205,154.99205 0 0 0 0.736328,1.7793 155,155 0 0 0 6.828125,12.50195 l 25.972656,-14.99414 a 125,125 0 0 1 -12.451171,-30.0664 z" />
  </g>
  <g
     inkscape:groupmode="layer"
     id="layer7"
     inkscape:label="ColorEmphasis 1"
     style="display:none">
    <path
       id="path9935"
       style="display:inline;fill:#0055d4;fill-opacity:1;fill-rule:evenodd;stroke-width:0.775"
       d="m 26.072266,82.673828 a 155,155 0 0 0 -6.705078,12.279297 154.99205,154.99205 0 0 0 -0.416016,0.808594 155,155 0 0 0 -6.871094,18.421871 154.99205,154.99205 0 0 0 -1.40039,4.90235 155,155 0 0 0 -3.617188,16.63086 154.99205,154.99205 0 0 0 -0.5351562,2.9414 155,155 0 0 0 -1.390625,19.44336 154.99205,154.99205 0 0 0 0.080078,4.91797 155,155 0 0 0 1.1542969,16.13672 154.99205,154.99205 0 0 0 0.4746093,4.13281 155,155 0 0 0 3.646485,16.76172 l 29.095703,-7.79687 A 125,125 0 0 1 35,160 125,125 0 0 1 52.046875,97.669922 Z" />
  </g>
  <g
     inkscape:groupmode="layer"
     id="layer8"
     inkscape:label="ColorEmphasis 2"
     style="display:none">
    <path
       id="path9914"
       style="display:inline;fill:#00aa44;fill-opacity:1;fill-rule:evenodd;stroke-width:0.775"
       d="m 119.93359,10.496094 a 155,155 0 0 0 -2.24414,0.488281 154.99205,154.99205 0 0 0 -4.08203,1.310547 155,155 0 0 0 -15.214842,5.675781 154.99205,154.99205 0 0 0 -4.28125,1.855469 155,155 0 0 0 -17.130859,9.353516 154.99205,154.99205 0 0 0 -2.792969,1.933593 155,155 0 0 0 -13.388672,10.021485 154.99205,154.99205 0 0 0 -3.820312,3.242187 155,155 0 0 0 -13.876954,13.876953 154.99205,154.99205 0 0 0 -1.076171,1.357422 155,155 0 0 0 -10.841797,14.480469 154.99205,154.99205 0 0 0 -2.789063,4.326172 155,155 0 0 0 -2.322265,4.255859 L 52.046875,97.669922 A 125,125 0 0 1 127.73047,39.591797 Z" />
  </g>
  <g
     inkscape:groupmode="layer"
     id="layer9"
     inkscape:label="ColorEmphasis 3"
     style="display:inline">
    <path
       id="path9892"
       style="display:inline;fill:#d4aa00;fill-opacity:1;fill-rule:evenodd;stroke-width:0.775"
       d="m 164.06641,5.0996094 a 154.99205,154.99205 0 0 0 -7.08203,0.1152344 155,155 0 0 0 -16.18165,1.1582031 154.99205,154.99205 0 0 0 -4.07421,0.46875 155,155 0 0 0 -16.79493,3.6542971 l 7.79688,29.095703 A 125,125 0 0 1 160,35 125,125 0 0 1 222.4707,51.777344 l 15,-25.980469 a 155,155 0 0 0 -0.78125,-0.441406 154.99205,154.99205 0 0 0 -12.16797,-6.25 155,155 0 0 0 -1.39062,-0.615235 154.99205,154.99205 0 0 0 -12.71484,-5.02539 155,155 0 0 0 -1.47657,-0.488282 A 154.99205,154.99205 0 0 0 195.8457,9.2363281 155,155 0 0 0 194.23633,8.875 154.99205,154.99205 0 0 0 180.91406,6.4511719 155,155 0 0 0 179.24609,6.2460938 154.99205,154.99205 0 0 0 165.77734,5.1425781 155,155 0 0 0 164.06641,5.0996094 Z" />
  </g>
  <g
     inkscape:groupmode="layer"
     id="layer10"
     inkscape:label="ColorEmphasis 4"
     style="display:none">
    <path
       id="path352-8-1"
       style="display:inline;fill:#d45500;fill-opacity:1;fill-rule:evenodd;stroke-width:0.775"
       d="m 237.4707,25.796875 -15,25.980469 a 125,125 0 0 1 58.24219,75.867186 l 28.96289,-7.75976 a 155,155 0 0 0 -0.17969,-0.6543 154.99205,154.99205 0 0 0 -4.28906,-13.34766 155,155 0 0 0 -0.44141,-1.14258 154.99205,154.99205 0 0 0 -5.56445,-12.832027 155,155 0 0 0 -0.54883,-1.091797 154.99205,154.99205 0 0 0 -6.77539,-12.193359 155,155 0 0 0 -0.69922,-1.103516 154.99205,154.99205 0 0 0 -7.91015,-11.429687 155,155 0 0 0 -0.8125,-1.041016 154.99205,154.99205 0 0 0 -8.96875,-10.570312 155,155 0 0 0 -0.94922,-0.998047 154.99205,154.99205 0 0 0 -9.91992,-9.59961 155,155 0 0 0 -1.09375,-0.943359 154.99205,154.99205 0 0 0 -10.78125,-8.554688 155,155 0 0 0 -1.18555,-0.835937 154.99205,154.99205 0 0 0 -11.52734,-7.433594 155,155 0 0 0 -0.5586,-0.316406 z" />
  </g>
  <g
     inkscape:groupmode="layer"
     id="layer11"
     inkscape:label="ColorEmphasis 5"
     style="display:none">
    <path
       id="path3375-4"
       style="display:inline;opacity:1;fill:#d40000;stroke:#ffffff;stroke-width:0;stroke-linecap:round;stroke-linejoin:round;stroke-miterlimit:4;stroke-dasharray:none;paint-order:stroke fill markers"
       d="m 309.67578,119.88477 -28.96289,7.75976 A 125,125 0 0 1 285,160 125,125 0 0 1 267.95703,222.32617 l 25.97461,14.9961 a 155,155 0 0 0 6.91602,-12.66797 154.99205,154.99205 0 0 0 0.24804,-0.54297 155,155 0 0 0 7.52735,-20.17969 154.99205,154.99205 0 0 0 0.16015,-0.55273 155,155 0 0 0 4.58594,-21.07813 154.99205,154.99205 0 0 0 0.0723,-0.52344 155,155 0 0 0 1.54101,-21.53515 154.99205,154.99205 0 0 0 -0.004,-1.1211 155,155 0 0 0 -0.1504,-6.0664 154.99205,154.99205 0 0 0 -0.0723,-1.43946 155,155 0 0 0 -0.4375,-5.93554 154.99205,154.99205 0 0 0 -0.15625,-1.61328 155,155 0 0 0 -0.74023,-6.00586 154.99205,154.99205 0 0 0 -0.24219,-1.62305 155,155 0 0 0 -1.03907,-5.98633 154.99205,154.99205 0 0 0 -0.27148,-1.36719 155,155 0 0 0 -1.33789,-5.96093 154.99205,154.99205 0 0 0 -0.36719,-1.47657 155,155 0 0 0 -0.48828,-1.76171 z" />
  </g>
  <g
     inkscape:groupmode="layer"
     id="layer2"
     inkscape:label="Nail"
     style="display:inline">
    <path
       style="fill:#333333;stroke:#e6e6e6;stroke-width:5;stroke-linecap:round;stroke-linejoin:round;stroke-miterlimit:4;stroke-dasharray:none;stroke-opacity:1;paint-order:stroke fill markers"
       d="m 160,8 c 3.98955,0 5,240 5,240 h -10 c 0,0 1.01794,-240 5,-240 z"
       id="path46"
       sodipodi:nodetypes="cccc" />
    <circle
       style="fill:#333333;stroke:#e6e6e6;stroke-width:5;stroke-linecap:round;stroke-linejoin:round;stroke-miterlimit:4;stroke-dasharray:none;paint-order:stroke fill markers"
       id="path2765"
       cx="160"
       cy="160"
       r="10" />
  </g>
  <g
     inkscape:groupmode="layer"
     id="layer4"
     inkscape:label="Heart">
    <g
       aria-label="❤️"
       id="text14571"
       style="font-size:40px;line-height:1.25;fill:#ffffff" />
    <g
       aria-label="❤️"
       id="g14695"
       style="font-size:40px;line-height:1.25;fill:#e42b2b;stroke:#f5cbcb;fill-opacity:1;stroke-opacity:1">
      <path
         d="M 160,181.84309 181.44507,160.373 c 1.20113,-1.20113 2.11865,-2.56907 2.75258,-4.10384 0.65061,-1.55145 0.97591,-3.17798 0.97591,-4.87957 0,-1.75164 -0.33365,-3.39484 -1.00093,-4.92961 -0.66729,-1.55146 -1.57648,-2.90272 -2.72756,-4.0538 -1.15107,-1.15107 -2.50234,-2.06026 -4.05379,-2.72755 -1.53477,-0.66729 -3.17798,-1.00094 -4.92961,-1.00094 -1.36795,0 -2.58576,0.16682 -3.65342,0.50047 -1.06767,0.33365 -2.05192,0.79241 -2.95277,1.37629 -0.90084,0.56719 -1.75998,1.24283 -2.57741,2.0269 -0.80075,0.76738 -1.62652,1.58482 -2.47732,2.45229 L 160,145.85941 l -0.72568,-0.7507 c -0.85079,-0.88416 -1.68491,-1.70993 -2.50234,-2.47732 -0.81743,-0.78407 -1.68491,-1.46803 -2.60243,-2.05192 -0.90085,-0.58388 -1.89344,-1.04264 -2.97779,-1.37628 -1.06766,-0.35033 -2.28548,-0.5255 -3.65342,-0.5255 -1.75164,0 -3.40318,0.33365 -4.95464,1.00094 -1.53477,0.66729 -2.87769,1.57648 -4.02877,2.72755 -1.15107,1.15108 -2.06026,2.50234 -2.72755,4.0538 -0.66729,1.53477 -1.00094,3.17797 -1.00094,4.92961 0,1.70159 0.31696,3.32812 0.95089,4.87957 0.65061,1.53477 1.57648,2.90271 2.7776,4.10384 z"
         style="font-size:64px;font-family:Arial;-inkscape-font-specification:'Arial, Normal';fill:#e42b2b;stroke:#f5cbcb;stroke-width:4.00375;stroke-miterlimit:4;stroke-dasharray:none;fill-opacity:1;stroke-opacity:1"
         id="path14693"
         sodipodi:nodetypes="cccscscssccccccccscscsccc" />
    </g>
  </g>
</svg>
